<?xml version="1.0" encoding="UTF-8"?>
<!DOCTYPE svg PUBLIC "-//W3C//DTD SVG 1.1//EN" "http://www.w3.org/Graphics/SVG/1.1/DTD/svg11.dtd">
<!-- Creator: CorelDRAW (Versão OEM) -->
<svg xmlns="http://www.w3.org/2000/svg" xml:space="preserve" width="480.5mm" height="82.65mm" version="1.1" style="shape-rendering:geometricPrecision; text-rendering:geometricPrecision; image-rendering:optimizeQuality; fill-rule:evenodd; clip-rule:evenodd"
viewBox="0 0 48050 8265"
 xmlns:xlink="http://www.w3.org/1999/xlink"
 xmlns:xodm="http://www.corel.com/coreldraw/odm/2003"
 zoomAndPan="magnify">
 <defs>
  <style type="text/css">
   <![CDATA[
    .fil1 {fill:black;fill-rule:nonzero}
    .fil0 {fill:#FE3030;fill-rule:nonzero}
   ]]>
  </style>
 </defs>
 <g id="Camada_x0020_1">
  <metadata id="CorelCorpID_0Corel-Layer"/>
  <path class="fil0" d="M4214.59 8280.66c-824.21,0 -1556.15,-175.86 -2195.83,-527.58 -639.09,-351.58 -1138.32,-837.58 -1497.53,-1458.02 -359.36,-620.87 -538.9,-1336.5 -538.9,-2146.9 0,-809.66 179.54,-1524.56 538.9,-2145 359.21,-620.87 858.44,-1107.17 1497.53,-1458.89 639.68,-352.32 1371.62,-528.46 2195.83,-528.46 832.43,0 1566.15,176.14 2201.13,528.46 635.55,351.72 1134.63,838.02 1497.67,1458.89 363.33,620.44 545.07,1335.34 545.07,2145 0,810.4 -181.74,1526.03 -545.07,2146.9 -363.04,620.44 -862.12,1106.44 -1497.67,1458.02 -634.98,351.72 -1368.7,527.58 -2201.13,527.58zm-2393.58 -4132.5c0,477.19 101.95,897.52 306.02,1261.14 204.22,363.19 485.71,646.59 845.08,850.81 359.21,204.2 773.37,306.32 1242.48,306.32 476.6,0 894.73,-102.12 1254.09,-306.32 359.21,-204.22 639.09,-487.62 839.63,-850.81 200.54,-363.62 300.75,-783.95 300.75,-1261.14 0,-476.45 -100.21,-896.05 -300.75,-1259.23 -200.54,-363.63 -480.42,-647.47 -839.63,-851.68 -359.36,-204.66 -777.49,-307.21 -1254.09,-307.21 -469.11,0 -883.27,102.55 -1242.48,307.21 -359.37,204.21 -640.86,488.05 -845.08,851.68 -204.07,363.18 -306.02,782.78 -306.02,1259.23zm0 0zm0 0z"/>
  <path class="fil0" d="M9900.01 8122.13l0 -7946.91 3392.63 0c605.15,0 1130.82,110.03 1577.16,329.68 446.33,219.2 790.41,533.3 1032.09,942.17 242.27,408.29 363.48,896.5 363.48,1464.33 0,582.83 -132.52,1084.4 -397.41,1504.59 -264.46,419.9 -635.13,735.76 -1111.73,947.62l1645.19 2758.52 -2087.41 0 -1418.78 -2474.68 -1191.51 0 0 2474.68 -1803.71 0zm1781.38 -3996.3l1373.1 0c446.32,0 788.65,-103.88 1026.8,-311.61 238.01,-208.34 357.16,-505.69 357.16,-892.09 0,-385.66 -119.15,-682.44 -357.16,-890.32 -238.15,-208.19 -580.48,-312.5 -1026.8,-312.5l-1373.1 0 0 2406.52zm0 0zm0 0z"/>
  <path class="fil0" d="M16912.25 8122.13l3154.61 -7946.91 1769.63 0 3154.47 7946.91 -1929.03 0 -532.58 -1373.97 -3154.46 0 -533.47 1373.97 -1929.17 0zm2927.18 -2792.6l2236.1 0 -1123.49 -2906.33 -1112.61 2906.33zm0 0zm0 0z"/>
  <path class="fil0" d="M29303.58 8280.66c-802.02,0 -1513.4,-175.86 -2133.98,-527.58 -620.14,-351.58 -1104.24,-837.58 -1451.99,-1458.02 -348.04,-620.87 -521.85,-1336.5 -521.85,-2146.9 0,-809.66 173.81,-1524.56 521.85,-2145 347.75,-620.87 830.08,-1107.17 1446.55,-1458.89 616.33,-352.32 1325.79,-528.46 2127.81,-528.46 673.18,0 1289.5,128.69 1849.41,386.1 559.6,257.4 1030.47,620.58 1412.46,1089.97 382.43,469.26 649.23,1021.82 800.26,1657.68l-1861 0c-151.03,-438.85 -419.6,-784.98 -805.56,-1038.86 -385.65,-253.72 -832.14,-380.66 -1339.15,-380.66 -445.9,0 -844.92,102.55 -1196.79,307.21 -351.58,204.21 -625.73,488.05 -822.74,851.68 -196.43,363.18 -294.42,782.78 -294.42,1259.23 0,477.19 97.99,897.52 294.42,1261.14 197.01,363.19 469.25,646.59 817.3,850.81 347.75,204.2 745.02,306.32 1191.51,306.32 521.41,0 978.76,-134.29 1372.21,-403 393.88,-268.71 674.05,-629.83 840.51,-1083.81l1860.13 0c-128.4,643.06 -385.51,1205.17 -771.62,1685.59 -385.65,480.71 -863.88,853.59 -1434.94,1118.62 -571.07,264.46 -1204.58,396.83 -1900.38,396.83zm0 0zm0 0z"/>
  <path class="fil1" d="M34818.43 8122.13l0 -7946.91 4981.39 0 0 1634.6 -3177.68 0 0 1986.48 2882.38 0 0 1589.64 -2882.38 0 0 2736.19 -1803.71 0zm0 0zm0 0z"/>
  <path class="fil1" d="M43328.05 8122.13l0 -2781.88 -2927.04 -5165.03 2053.46 0 987.3 1838.67 794.81 1441.99 782.5 -1441.99 975.67 -1838.67 2054.35 0 -2916.46 5142.7 0 2804.21 -1804.59 0zm0 0zm0 0z"/>
 </g>
</svg>
