<?xml version="1.0" encoding="UTF-8"?>
<!DOCTYPE svg PUBLIC "-//W3C//DTD SVG 1.1//EN" "http://www.w3.org/Graphics/SVG/1.1/DTD/svg11.dtd">
<!-- Creator: CorelDRAW (Versão OEM) -->
<svg xmlns="http://www.w3.org/2000/svg" xml:space="preserve" width="210mm" height="41.325mm" version="1.1" style="shape-rendering:geometricPrecision; text-rendering:geometricPrecision; image-rendering:optimizeQuality; fill-rule:evenodd; clip-rule:evenodd"
viewBox="0 0 21000 4132.5"
 xmlns:xlink="http://www.w3.org/1999/xlink"
 xmlns:xodm="http://www.corel.com/coreldraw/odm/2003"
 zoomAndPan="magnify">
 <defs>
  <style type="text/css">
   <![CDATA[
    .fil1 {fill:black}
    .fil0 {fill:black;fill-rule:nonzero}
   ]]>
  </style>
 </defs>
 <g id="Camada_x0020_1">
  <metadata id="CorelCorpID_0Corel-Layer"/>
  <g id="_3287358573392">
   <path class="fil0" d="M6361.47 3521.92c-274.99,0 -519.35,-58.37 -732.82,-175.23 -213.33,-116.87 -380.08,-278.41 -499.85,-484.67 -120.03,-206.37 -179.91,-444.14 -179.91,-713.44 0,-269.17 59.88,-506.82 179.91,-712.94 119.77,-206.37 286.52,-368.06 499.85,-484.91 213.47,-117.12 457.83,-175.62 732.82,-175.62 277.91,0 522.77,58.5 734.72,175.62 212.19,116.85 378.81,278.54 499.98,484.91 121.3,206.12 181.94,443.77 181.94,712.94 0,269.3 -60.64,507.07 -181.94,713.44 -121.17,206.26 -287.79,367.8 -499.98,484.67 -211.95,116.86 -456.81,175.23 -734.72,175.23zm-798.9 -1373.34c0,158.52 34.06,298.17 102.17,419.08 68.11,120.66 162.06,214.85 282.08,282.72 119.9,67.86 258.16,101.79 414.65,101.79 159.15,0 298.68,-33.93 418.7,-101.79 119.9,-67.87 213.34,-162.06 280.19,-282.72 66.98,-120.91 100.4,-260.56 100.4,-419.08 0,-158.39 -33.42,-297.91 -100.4,-418.57 -66.85,-120.91 -160.29,-215.24 -280.19,-283.1 -120.02,-67.99 -259.55,-102.05 -418.7,-102.05 -156.49,0 -294.75,34.06 -414.65,102.05 -120.02,67.86 -213.97,162.19 -282.08,283.1 -68.11,120.66 -102.17,260.18 -102.17,418.57zm0 0zm0 0z"/>
   <path class="fil0" d="M8259.23 3469.25l0 -2641.21 1132.4 0c201.94,0 377.42,36.59 526.44,109.52 149.02,72.92 263.85,177.38 344.5,313.23 80.91,135.73 121.3,297.92 121.3,486.69 0,193.71 -44.19,360.33 -132.56,500.11 -88.38,139.53 -212.07,244.49 -371.1,314.87l549.11 916.79 -696.74 0 -473.64 -822.46 -397.68 0 0 822.46 -602.03 0zm594.56 -1328.14l458.33 0c149.01,0 263.21,-34.56 342.72,-103.56 79.51,-69.26 119.27,-168.15 119.27,-296.53 0,-128.13 -39.76,-226.88 -119.27,-295.89 -79.38,-69.25 -193.71,-103.94 -342.72,-103.94l-458.33 0 0 799.92zm0 0zm0 0z"/>
   <path class="fil0" d="M10599.86 3469.25l1052.89 -2641.21 590.76 0 1052.89 2641.21 -643.94 0 -177.76 -456.56 -1052.89 0 -178.01 456.56 -643.94 0zm977.05 -928.05l746.37 0 -375.03 -966.03 -371.34 966.03zm0 0zm0 0z"/>
   <path class="fil0" d="M14735.83 3521.92c-267.66,0 -505.18,-58.37 -712.32,-175.23 -206.88,-116.87 -368.55,-278.41 -484.53,-484.67 -116.23,-206.37 -174.21,-444.14 -174.21,-713.44 0,-269.17 57.98,-506.82 174.21,-712.94 115.98,-206.37 277.02,-368.06 482.76,-484.91 205.75,-117.12 442.51,-175.62 710.28,-175.62 224.61,0 430.35,42.8 617.23,128.26 186.88,85.59 344,206.25 471.49,362.24 127.75,155.98 216.76,339.68 267.14,551l-621.14 0c-50.39,-145.85 -140.03,-260.95 -268.92,-345.26 -128.76,-84.33 -277.78,-126.49 -447.06,-126.49 -148.76,0 -281.96,34.06 -399.45,102.05 -117.37,67.86 -208.78,162.19 -274.62,283.1 -65.58,120.66 -98.24,260.18 -98.24,418.57 0,158.52 32.66,298.17 98.24,419.08 65.84,120.66 156.74,214.85 272.85,282.72 116.09,67.86 248.66,101.79 397.68,101.79 174.09,0 326.78,-44.57 458.07,-133.95 131.42,-89.26 224.99,-209.29 280.57,-360.08l620.9 0c-42.93,213.72 -128.77,400.47 -257.65,560.12 -128.64,159.78 -288.3,283.73 -478.97,371.85 -190.55,87.87 -401.99,131.81 -634.31,131.81zm0 0zm0 0z"/>
   <path class="fil0" d="M16576.6 3469.25l0 -2641.21 1662.77 0 0 543.28 -1060.61 0 0 660.27 961.98 0 0 528.34 -961.98 0 0 909.32 -602.16 0zm0 0zm0 0z"/>
   <path class="fil0" d="M19417.1 3469.25l0 -924.51 -977.06 -1716.7 685.35 0 329.56 611.15 265.38 479.21 261.19 -479.21 325.64 -611.15 685.72 0 -973.5 1709.23 0 931.98 -602.28 0zm0 0zm0 0z"/>
   <path class="fil0" d="M4277.85 2890.01c-25.45,-17.35 -55.2,-29.13 -86.98,-32.92 -93.43,-11.27 -168.64,50.51 -168.13,137.88l5.44 825.62 -874.37 -5.19c-92.67,-0.5 -158.13,70.52 -146.23,158.65 11.9,88.11 96.6,160.03 189.28,160.53l1023.01 6.08c84.7,0.51 148.01,-59.26 147.5,-139.27l-6.33 -965.66c-0.26,-36.71 -13.8,-72.04 -36.34,-101.67l-46.85 -44.05zm0 0z"/>
   <path class="fil0" d="M1316.71 94.72c18.36,24.05 30.89,52.16 34.94,82.16 11.9,88.25 -53.55,159.28 -146.11,158.65l-874.49 -5.06 5.44 825.36c0.51,87.49 -74.69,149.27 -168.13,138.13 -93.32,-11.26 -169.53,-91.28 -170.16,-178.76l-6.34 -965.66c-0.5,-80.02 62.8,-139.78 147.5,-139.27l1023.01 6.08c38.87,0.12 76.47,13.03 107.74,34.3l46.6 44.07zm0 0z"/>
   <path class="fil1" d="M413.98 2086.29c0,135.73 18.23,266.39 45.7,376.54 40.02,160.03 101.42,307.02 185.36,447.57l41.03 64.57c13.16,21.9 29.11,40.76 43.55,61.9l46.08 59.38c8.87,11.15 14.44,18.49 23.94,28.74l24.18 28.62c8.35,10.89 16.21,16.96 25.7,27.1l24.81 27.84c17.85,17.86 35.71,37.99 54.19,54.32l204.47 164.6c11.78,7.85 19.25,14.31 30.9,21.77 88.88,56.85 178.14,103.44 273.73,148.14 23.81,11.14 50.77,22.03 74.58,30.89 26.46,9.75 49.88,18.61 77.48,27.85 55.2,18.62 106.73,31.53 165.1,45.84 200.68,49.25 448.45,62.17 655.83,32.41 146.62,-21.02 286.15,-52.29 421.36,-105.72l77.11 -31.27c24.56,-11.9 48.74,-21.4 72.16,-33.18 23.94,-12.14 45.08,-24.05 69.26,-36.21 45.58,-22.65 89.51,-51.27 131.55,-79.38 83.94,-56.09 165.35,-117.11 236.12,-188.65 10.01,-10.25 17.73,-14.68 27.86,-24.94l51.15 -54.31c4.81,-4.82 8.73,-8.11 13.04,-13.3 5.44,-6.46 5.44,-7.97 11.77,-14.56 34.06,-35.07 66.73,-76.73 94.46,-116.48 7.34,-10.51 14.55,-18.74 22.28,-30.51 42.41,-64.32 85.08,-128.14 119.27,-197.26 55.83,-113.07 97.74,-224.86 129.01,-348.69 14.82,-59 23.3,-113.69 32.29,-178.9 6.45,-47.35 10.51,-98.88 10.38,-147.87 0,-18.75 4.18,-38.62 2.66,-52.17 -3.17,-28.74 -3.17,-71.03 -5.45,-100.4 -7.09,-93.56 -20.25,-186.12 -42.29,-274.37 -14.81,-59.25 -30.38,-107.24 -49.63,-161.3 -18.48,-51.65 -39.37,-102.17 -63.3,-150.67 -53.56,-109 -119.77,-211.43 -194.47,-306.64 -4.94,-6.45 -7.09,-7.85 -12.15,-14.31l-154.22 -165.09 -173.7 -142.7 -229.04 -140.03c-12.29,-6.46 -23.94,-11.26 -35.58,-17.09l-74.2 -34.18c-158.89,-70.78 -326.65,-110.41 -500.73,-134.71 -32.42,-4.56 -66.48,-5.19 -96.23,-9.25 -36.2,-4.94 -111.79,-3.67 -151.43,-3.67 -67.48,0 -136.22,4.81 -198.27,12.53 -59.5,7.47 -125.09,17.85 -179.91,30.9 -151.05,35.57 -292.46,84.57 -429.84,153.07 -57.73,28.74 -115.72,62.55 -168.52,97.86 -54.19,36.22 -147.74,101.43 -195.23,147.63 -6.08,5.96 -7.34,7.6 -13.8,12.54 -31.27,23.93 -134.59,130.66 -158.14,161.3l-47.47 57.86c-73.81,89.9 -132.57,191.43 -184.73,295.89 -89.01,178.39 -160.03,424.02 -160.03,690.15zm1696.95 -1347.76c-169.15,15.95 -304.87,90.52 -404.77,170.16 -348.81,278.42 -497.45,794.99 -483.15,1238.75 10.89,338.17 115.22,655.84 270.31,878.17 128.26,183.96 378.82,435.28 741.82,401.73 171.93,-15.95 301.83,-90.02 404.51,-170.16 81.29,-63.56 146.23,-140.54 207.14,-223.47 19.5,-26.59 37.48,-57.48 56.08,-87.61 310.2,-502.14 290.7,-1325.35 -49.75,-1804.83 -77.49,-109.26 -174.09,-215.36 -287.91,-286.26 -123.32,-76.73 -272.59,-133.57 -454.28,-116.48zm0 0z"/>
  </g>
 </g>
</svg>
