<?xml version="1.0" encoding="UTF-8"?>
<!DOCTYPE svg PUBLIC "-//W3C//DTD SVG 1.1//EN" "http://www.w3.org/Graphics/SVG/1.1/DTD/svg11.dtd">
<!-- Creator: CorelDRAW (Versão OEM) -->
<svg xmlns="http://www.w3.org/2000/svg" xml:space="preserve" width="127.17mm" height="120mm" version="1.1" style="shape-rendering:geometricPrecision; text-rendering:geometricPrecision; image-rendering:optimizeQuality; fill-rule:evenodd; clip-rule:evenodd"
viewBox="0 0 12717 12000"
 xmlns:xlink="http://www.w3.org/1999/xlink"
 xmlns:xodm="http://www.corel.com/coreldraw/odm/2003"
 zoomAndPan="magnify">
 <defs>
  <style type="text/css">
   <![CDATA[
    .fil1 {fill:#FE3030}
    .fil0 {fill:black;fill-rule:nonzero}
   ]]>
  </style>
 </defs>
 <g id="Camada_x0020_1">
  <metadata id="CorelCorpID_0Corel-Layer"/>
 </g>
 <g id="Camada_x0020_1_5">
  <metadata id="CorelCorpID_1Corel-Layer"/>
 </g>
 <g id="Camada_x0020_1_0">
  <metadata id="CorelCorpID_2Corel-Layer"/>
  <g id="_2097282548816">
   <path class="fil0" d="M12457.07 8371.12c-74.29,-50.33 -160.87,-84.52 -253.2,-95.69 -271.57,-32.6 -490.26,146.97 -488.51,400.98l15.83 2399.07 -2542.18 -15.01c-269.33,-1.6 -459.58,204.8 -425.09,460.89 34.67,256.26 281,465.22 550.33,466.82l2485.37 14.69 545.63 0c217.35,-23.48 373.35,-187.7 371.88,-401.94l-18.53 -2806.13c-0.8,-106.73 -40.1,-209.44 -105.59,-295.24l-135.94 -128.44z"/>
   <path class="fil0" d="M3848.58 248.27c53.35,69.97 89.77,151.77 101.43,238.99 34.68,256.1 -155.59,462.5 -424.92,461.06l-2542.18 -15.17 15.66 2398.91c1.77,254.17 -216.93,433.74 -488.49,401.15 -271.41,-32.75 -492.82,-265.2 -494.58,-519.21l-15.65 -2370.78 0 -488.04c24.2,-205.74 198.64,-353.62 426.04,-352.3l2973.97 17.41c112.93,0.8 222.04,38.03 313.09,100.01l135.63 127.97z"/>
   <path class="fil1" d="M1224.14 6035.63c0,394.6 52.71,774.03 132.74,1094.17 116.14,465.06 295.05,892.56 538.98,1300.74l119.18 187.57c38.33,63.9 84.65,118.69 126.51,180.2l134.18 172.22c25.89,32.75 41.86,54 69.5,83.87l70.28 83.08c24.29,31.62 47.12,49.04 74.6,78.59l72.2 81.16c51.76,51.6 103.84,110.23 157.52,157.52l594.4 478.48c34.35,22.67 55.91,41.37 90.09,63.26 258.31,165.03 517.58,300.5 795.54,430.54 69.17,32.43 147.6,63.9 216.77,89.63 77.16,28.43 145.21,54.31 225.24,81.15 160.39,53.68 310.23,91.38 479.87,132.92 583.71,143.15 1304.01,180.85 1906.72,94.41 426.36,-61.18 831.95,-152.08 1224.92,-307.2l224.13 -90.91c71.72,-34.67 141.85,-62.15 209.89,-96.65 69.5,-34.99 131,-69.81 201.6,-104.96 132.12,-65.98 259.91,-149.05 382.28,-230.85 243.92,-162.79 480.83,-340.28 686.26,-548.29 29.23,-29.71 51.59,-42.65 80.99,-72.37l148.88 -157.68c14.06,-13.9 25.24,-23.64 37.86,-38.66 15.81,-19.01 15.81,-23.33 34.35,-42.33 99.04,-101.93 193.92,-223.03 274.59,-338.69 21.25,-30.52 42.18,-54.48 64.55,-88.67 123.32,-186.91 247.43,-372.23 346.8,-573.04 162.46,-328.78 284.18,-653.41 374.92,-1013.5 43.29,-171.42 67.73,-330.22 93.93,-519.54 19.01,-137.86 30.83,-287.55 30.2,-429.9 -0.17,-54.48 11.97,-112.15 7.66,-151.77 -9.26,-83.55 -8.95,-206.25 -15.5,-291.71 -20.92,-271.75 -58.95,-540.62 -123.16,-797.19 -43.13,-172.38 -88.34,-311.53 -144.41,-468.9 -53.51,-150 -114.53,-296.66 -183.86,-437.89 -155.76,-316.48 -348.08,-614.1 -565.34,-891.12 -14.54,-18.37 -20.77,-22.53 -35.46,-41.22l-448.25 -479.91 -504.79 -414.73 -666.14 -406.74c-35.78,-18.69 -69.33,-32.75 -103.52,-49.84l-215.65 -99.37c-461.65,-205.61 -949.52,-320.96 -1455.75,-391.41 -94.09,-13.1 -193.13,-14.85 -279.71,-26.68 -105.12,-14.37 -324.92,-10.86 -440.1,-10.86 -196.16,0 -395.85,14.06 -576.36,36.43 -173,21.56 -363.74,52.07 -523.16,89.62 -438.98,103.68 -849.84,246.02 -1249.37,444.92 -168.05,83.72 -336.42,181.81 -490.09,284.53 -157.52,105.28 -429.56,294.76 -567.26,428.95 -17.89,17.41 -21.57,21.88 -40.42,36.42 -90.89,69.5 -391.21,379.74 -459.58,468.57l-138.02 168.54c-214.53,261.04 -385.46,556.12 -537.06,859.81 -258.79,518.1 -465.17,1231.9 -465.17,2005.28zm4933.07 -3916.6c-491.69,46.32 -886.43,263.27 -1176.52,494.6 -1014.21,809.01 -1446.32,2310.09 -1404.64,3599.97 31.8,982.5 334.83,1905.58 785.63,2551.63 373.16,534.55 1101.6,1264.96 2156.55,1167.51 500,-46.16 877.48,-261.68 1176.05,-494.61 236.57,-184.35 425.07,-408.33 602.39,-649.41 56.56,-76.84 108.79,-166.79 162.94,-254.49 901.76,-1459.22 845.21,-3851.27 -144.57,-5244.66 -225.56,-317.61 -506.07,-626.1 -837.06,-831.86 -358.63,-223.02 -792.34,-388.37 -1320.77,-338.68zm0 0z"/>
  </g>
 </g>
</svg>
